<mxfile host="app.diagrams.net" modified="2023-04-10T20:14:01.893Z" agent="Mozilla/5.0 (Windows NT 10.0; Win64; x64) AppleWebKit/537.36 (KHTML, like Gecko) Chrome/112.0.0.0 Safari/537.36" version="21.1.2" etag="TSFSN9u0NxGctSDflR5s" type="github">
  <diagram name="Page-1" id="-Dgv1zZz2w9NrDU1bDuV">
    <mxGraphModel>
      <root>
        <mxCell id="0" />
        <mxCell id="1" parent="0" />
      </root>
    </mxGraphModel>
  </diagram>
</mxfile>
